<mxfile host="app.diagrams.net" modified="2023-03-23T06:40:49.012Z" agent="5.0 (Macintosh; Intel Mac OS X 10_15_7) AppleWebKit/537.36 (KHTML, like Gecko) Chrome/111.0.0.0 Safari/537.36" etag="Nc8swxK7kiLDCVKxUPSZ" version="21.0.8" type="github">
  <diagram name="第 1 页" id="s1Vz-YD5FBtxK5nK5yRp">
    <mxGraphModel dx="940" dy="552" grid="1" gridSize="10" guides="1" tooltips="1" connect="1" arrows="1" fold="1" page="1" pageScale="1" pageWidth="1169" pageHeight="827" math="0" shadow="0">
      <root>
        <mxCell id="0" />
        <mxCell id="1" parent="0" />
        <mxCell id="R0OJWSUJQf6cLIitKJCT-1" value="&lt;p&gt;之所以这么拖延，是因为违约成本太低&lt;/p&gt;&lt;p&gt;还有报喜的，签单成功率超高啊，写的文点赞超多啊,做的视频破&lt;span style=&quot;background-color: initial;&quot;&gt;万赞，这是提升自己个人影响力的好事，更应该发在群里。&lt;/span&gt;&lt;/p&gt;&lt;p style=&quot;line-height: 0%;&quot;&gt;&lt;span style=&quot;background-color: initial;&quot;&gt;展示价值，多条人脉。让人了解，信任成长&lt;/span&gt;&lt;/p&gt;&lt;p style=&quot;line-height: 0%;&quot;&gt;&lt;span style=&quot;background-color: initial;&quot;&gt;在工作组织里成为一-方支柱，承诺负责。&lt;br&gt;&lt;/span&gt;&lt;/p&gt;&lt;p style=&quot;line-height: 0%;&quot;&gt;&lt;span style=&quot;background-color: initial;&quot;&gt;向银行获得更多自由资金,承诺还款。&lt;/span&gt;&lt;br&gt;&lt;/p&gt;&lt;p style=&quot;line-height: 0%;&quot;&gt;&lt;span style=&quot;background-color: initial;&quot;&gt;向你的客户收钱，承诺满足理想状态。&lt;br&gt;&lt;/span&gt;&lt;/p&gt;" style="text;html=1;strokeColor=#d6b656;fillColor=#fff2cc;spacing=5;spacingTop=-20;whiteSpace=wrap;overflow=hidden;rounded=1;gradientColor=#66FF66;" parent="1" vertex="1">
          <mxGeometry x="40" y="10" width="260" height="170" as="geometry" />
        </mxCell>
        <mxCell id="R0OJWSUJQf6cLIitKJCT-2" value="&lt;font style=&quot;font-size: 18px;&quot; color=&quot;#ff9933&quot;&gt;改变自我，同化客户&lt;/font&gt;" style="text;html=1;strokeColor=#6c8ebf;fillColor=#dae8fc;align=center;verticalAlign=middle;whiteSpace=wrap;rounded=1;" parent="1" vertex="1">
          <mxGeometry x="360" y="140" width="220" height="30" as="geometry" />
        </mxCell>
        <mxCell id="R0OJWSUJQf6cLIitKJCT-4" value="&lt;div style=&quot;line-height: 160%;&quot;&gt;&lt;b&gt;&lt;font color=&quot;#d32727&quot;&gt;世界是多面的，你不能改变世界，&lt;/font&gt;&lt;/b&gt;&lt;/div&gt;&lt;div style=&quot;line-height: 160%;&quot;&gt;&lt;span style=&quot;font-size: 12px;&quot;&gt;&lt;b&gt;&lt;font color=&quot;#d32727&quot;&gt;但你可以改变自己，决定你能看到哪个面。&lt;/font&gt;&lt;/b&gt;&lt;/span&gt;&lt;/div&gt;&lt;div style=&quot;line-height: 160%;&quot;&gt;&lt;span style=&quot;font-size: 12px;&quot;&gt;&lt;b&gt;&lt;font color=&quot;#d32727&quot;&gt;让自己变的有选择余地，而不是碰到垃圾事情埋怨环境&lt;/font&gt;&lt;/b&gt;&lt;/span&gt;&lt;/div&gt;" style="text;html=1;align=center;verticalAlign=middle;resizable=0;points=[];autosize=1;strokeColor=default;fillColor=#FFB366;gradientColor=#b4cfca;rounded=1;" parent="1" vertex="1">
          <mxGeometry x="310" y="50" width="340" height="80" as="geometry" />
        </mxCell>
        <mxCell id="R0OJWSUJQf6cLIitKJCT-5" value="&lt;p style=&quot;line-height: 110%;&quot;&gt;1、不要抱着养客户的心态去谈生意。优柔寡断收不到钱。&lt;/p&gt;&lt;p style=&quot;line-height: 110%;&quot;&gt;2、要么买就买，不买就不买不存在考虑一下再买&lt;/p&gt;&lt;p style=&quot;line-height: 110%;&quot;&gt;自己爽快，买家才能爽快&lt;/p&gt;" style="text;html=1;strokeColor=#6c8ebf;fillColor=#dae8fc;spacing=5;spacingTop=-20;whiteSpace=wrap;overflow=hidden;rounded=1;" parent="1" vertex="1">
          <mxGeometry x="370" y="180" width="190" height="100" as="geometry" />
        </mxCell>
        <mxCell id="R0OJWSUJQf6cLIitKJCT-6" value="&lt;h1&gt;掌控感缺失&lt;/h1&gt;&lt;p&gt;未知让你恐惧，不够有信心。对过程和结果都有信心就会有信心。&lt;/p&gt;&lt;p style=&quot;line-height: 0%;&quot;&gt;1、你的常识是客户的盲区，怎么讲都是有道理&lt;/p&gt;&lt;p style=&quot;line-height: 30%;&quot;&gt;2、收钱的主张经过验证，直达客户理想状态&lt;/p&gt;&lt;p style=&quot;line-height: 30%;&quot;&gt;&amp;nbsp; &amp;nbsp; &amp;nbsp;与同行沟通；与客户沟通看理想状态，需求&lt;/p&gt;&lt;p style=&quot;line-height: 90%;&quot;&gt;3、你的专业能力通过验证。客户需求越需，就越好忽悠，越详细就需要专业对待&lt;/p&gt;&lt;p style=&quot;line-height: 90%;&quot;&gt;4、流程没问题，收钱就是概率问题&lt;/p&gt;&lt;p style=&quot;line-height: 90%;&quot;&gt;5、有一定经济实力承担风险（银行信用卡）&lt;/p&gt;&lt;p style=&quot;line-height: 90%;&quot;&gt;6、大方允许自己犯错&lt;/p&gt;&lt;p style=&quot;line-height: 30%;&quot;&gt;&lt;br&gt;&lt;/p&gt;" style="text;html=1;strokeColor=#9673a6;fillColor=#e1d5e7;spacing=5;spacingTop=-20;whiteSpace=wrap;overflow=hidden;rounded=1;shadow=1;" parent="1" vertex="1">
          <mxGeometry x="600" y="180" width="280" height="260" as="geometry" />
        </mxCell>
        <mxCell id="R0OJWSUJQf6cLIitKJCT-7" value="" style="endArrow=classic;html=1;rounded=0;entryX=0;entryY=0.294;entryDx=0;entryDy=0;entryPerimeter=0;" parent="1" target="R0OJWSUJQf6cLIitKJCT-6" edge="1">
          <mxGeometry width="50" height="50" relative="1" as="geometry">
            <mxPoint x="560" y="230" as="sourcePoint" />
            <mxPoint x="610" y="180" as="targetPoint" />
          </mxGeometry>
        </mxCell>
        <mxCell id="R0OJWSUJQf6cLIitKJCT-8" value="&lt;div&gt;&lt;b&gt;&lt;font color=&quot;#e91616&quot;&gt;你不冒头你永远得不到优质的资源，你不犯错就是固步自封永远也不&lt;/font&gt;&lt;/b&gt;&lt;b style=&quot;background-color: initial;&quot;&gt;&lt;font color=&quot;#e91616&quot;&gt;会进步。&lt;/font&gt;&lt;/b&gt;&lt;/div&gt;" style="text;html=1;strokeColor=#d79b00;fillColor=#ffe6cc;align=center;verticalAlign=middle;whiteSpace=wrap;rounded=1;" parent="1" vertex="1">
          <mxGeometry x="340" y="350" width="250" height="30" as="geometry" />
        </mxCell>
        <mxCell id="R0OJWSUJQf6cLIitKJCT-9" value="&lt;h1&gt;&lt;span style=&quot;font-weight: normal;&quot;&gt;承诺&lt;/span&gt;&lt;/h1&gt;&lt;p&gt;1)在群里公开聊天，成为小KOL,承诺优秀。&lt;/p&gt;&lt;p&gt;&lt;span style=&quot;font-size: 12px;&quot;&gt;2)在工作组织里成为一-方支柱，承诺负责。&lt;/span&gt;&lt;/p&gt;&lt;p&gt;&lt;span style=&quot;font-size: 12px;&quot;&gt;3)向银行获得更多自由资金，承诺还款。.&lt;/span&gt;&lt;/p&gt;&lt;p&gt;&lt;span style=&quot;font-size: 12px;&quot;&gt;4)向你的客户收钱，承诺满足理想状态。&lt;/span&gt;&lt;/p&gt;" style="text;html=1;strokeColor=#d79b00;fillColor=#ffe6cc;spacing=5;spacingTop=-20;whiteSpace=wrap;overflow=hidden;rounded=1;" parent="1" vertex="1">
          <mxGeometry x="40" y="210" width="260" height="170" as="geometry" />
        </mxCell>
      </root>
    </mxGraphModel>
  </diagram>
</mxfile>
